<mxfile host="app.diagrams.net" modified="2021-01-27T15:11:54.471Z" agent="5.0 (Windows NT 10.0; Win64; x64) AppleWebKit/537.36 (KHTML, like Gecko) Chrome/87.0.4280.141 Safari/537.36" etag="rG9XQkqMQTgCxhnhcxWq" version="14.2.7" type="github">
  <diagram id="iTnLbPA0bUSlMBwM3kBu" name="Page-1">
    <mxGraphModel dx="1019" dy="614" grid="1" gridSize="10" guides="1" tooltips="1" connect="1" arrows="1" fold="1" page="1" pageScale="1" pageWidth="827" pageHeight="1169" math="0" shadow="0">
      <root>
        <mxCell id="0" />
        <mxCell id="1" parent="0" />
        <mxCell id="IF2Q6fgf_21Sja4Km_W9-1" value="" style="rounded=0;whiteSpace=wrap;html=1;" parent="1" vertex="1">
          <mxGeometry width="1000" height="560" as="geometry" />
        </mxCell>
        <mxCell id="IF2Q6fgf_21Sja4Km_W9-3" value="" style="rounded=0;whiteSpace=wrap;html=1;" parent="1" vertex="1">
          <mxGeometry x="670" y="352" width="320" height="200" as="geometry" />
        </mxCell>
        <mxCell id="IF2Q6fgf_21Sja4Km_W9-5" value="" style="rounded=0;whiteSpace=wrap;html=1;" parent="1" vertex="1">
          <mxGeometry x="10" y="352" width="660" height="200" as="geometry" />
        </mxCell>
        <mxCell id="IF2Q6fgf_21Sja4Km_W9-6" value="" style="rounded=0;whiteSpace=wrap;html=1;" parent="1" vertex="1">
          <mxGeometry x="10" y="10" width="980" height="340" as="geometry" />
        </mxCell>
        <mxCell id="IF2Q6fgf_21Sja4Km_W9-8" value="&lt;span style=&quot;color: rgba(0 , 0 , 0 , 0) ; font-family: monospace ; font-size: 0px&quot;&gt;%3CmxGraphModel%3E%3Croot%3E%3CmxCell%20id%3D%220%22%2F%3E%3CmxCell%20id%3D%221%22%20parent%3D%220%22%2F%3E%3CmxCell%20id%3D%222%22%20value%3D%22%22%20style%3D%22strokeWidth%3D2%3Bhtml%3D1%3Bshape%3Dmxgraph.flowchart.start_2%3BwhiteSpace%3Dwrap%3BfillColor%3D%23DBDB00%3BstrokeColor%3Dnone%3B%22%20vertex%3D%221%22%20parent%3D%221%22%3E%3CmxGeometry%20x%3D%22680%22%20y%3D%22477%22%20width%3D%2230%22%20height%3D%2230%22%20as%3D%22geometry%22%2F%3E%3C%2FmxCell%3E%3C%2Froot%3E%3C%2FmxGraphModel%3E&lt;/span&gt;&lt;span style=&quot;color: rgba(0 , 0 , 0 , 0) ; font-family: monospace ; font-size: 0px&quot;&gt;%3CmxGraphModel%3E%3Croot%3E%3CmxCell%20id%3D%220%22%2F%3E%3CmxCell%20id%3D%221%22%20parent%3D%220%22%2F%3E%3CmxCell%20id%3D%222%22%20value%3D%22%22%20style%3D%22strokeWidth%3D2%3Bhtml%3D1%3Bshape%3Dmxgraph.flowchart.start_2%3BwhiteSpace%3Dwrap%3BfillColor%3D%23DBDB00%3BstrokeColor%3Dnone%3B%22%20vertex%3D%221%22%20parent%3D%221%22%3E%3CmxGeometry%20x%3D%22680%22%20y%3D%22477%22%20width%3D%2230%22%20height%3D%2230%22%20as%3D%22geometry%22%2F%3E%3C%2FmxCell%3E%3C%2Froot%3E%3C%2FmxGraphModel%3E&lt;/span&gt;&lt;span style=&quot;color: rgba(0 , 0 , 0 , 0) ; font-family: monospace ; font-size: 0px&quot;&gt;%3CmxGraphModel%3E%3Croot%3E%3CmxCell%20id%3D%220%22%2F%3E%3CmxCell%20id%3D%221%22%20parent%3D%220%22%2F%3E%3CmxCell%20id%3D%222%22%20value%3D%22%22%20style%3D%22strokeWidth%3D2%3Bhtml%3D1%3Bshape%3Dmxgraph.flowchart.start_2%3BwhiteSpace%3Dwrap%3BfillColor%3D%23DBDB00%3BstrokeColor%3Dnone%3B%22%20vertex%3D%221%22%20parent%3D%221%22%3E%3CmxGeometry%20x%3D%22680%22%20y%3D%22477%22%20width%3D%2230%22%20height%3D%2230%22%20as%3D%22geometry%22%2F%3E%3C%2FmxCell%3E%3C%2Froot%3E%3C%2FmxGraphModel%3E&lt;/span&gt;" style="strokeWidth=2;html=1;shape=mxgraph.flowchart.start_2;whiteSpace=wrap;fillColor=#04B84C;strokeColor=none;" parent="1" vertex="1">
          <mxGeometry x="680" y="357" width="30" height="30" as="geometry" />
        </mxCell>
        <mxCell id="IF2Q6fgf_21Sja4Km_W9-9" value="" style="strokeWidth=2;html=1;shape=mxgraph.flowchart.start_2;whiteSpace=wrap;fillColor=#CC1818;strokeColor=none;" parent="1" vertex="1">
          <mxGeometry x="680" y="396" width="30" height="30" as="geometry" />
        </mxCell>
        <mxCell id="IF2Q6fgf_21Sja4Km_W9-10" value="" style="strokeWidth=2;html=1;shape=mxgraph.flowchart.start_2;whiteSpace=wrap;fillColor=#4D4630;strokeColor=none;" parent="1" vertex="1">
          <mxGeometry x="680" y="437" width="30" height="30" as="geometry" />
        </mxCell>
        <mxCell id="IF2Q6fgf_21Sja4Km_W9-11" value="" style="strokeWidth=2;html=1;shape=mxgraph.flowchart.start_2;whiteSpace=wrap;fillColor=#DBDB00;strokeColor=none;" parent="1" vertex="1">
          <mxGeometry x="680" y="477" width="30" height="30" as="geometry" />
        </mxCell>
        <mxCell id="IF2Q6fgf_21Sja4Km_W9-13" value="" style="endArrow=none;html=1;" parent="1" edge="1">
          <mxGeometry width="50" height="50" relative="1" as="geometry">
            <mxPoint x="760" y="79" as="sourcePoint" />
            <mxPoint x="760" y="349.99647058823524" as="targetPoint" />
          </mxGeometry>
        </mxCell>
        <mxCell id="IF2Q6fgf_21Sja4Km_W9-14" value="" style="endArrow=none;html=1;" parent="1" edge="1">
          <mxGeometry width="50" height="50" relative="1" as="geometry">
            <mxPoint x="400" y="140" as="sourcePoint" />
            <mxPoint x="399.9999999999998" y="349.9964705882353" as="targetPoint" />
          </mxGeometry>
        </mxCell>
        <mxCell id="IF2Q6fgf_21Sja4Km_W9-15" value="" style="endArrow=none;html=1;" parent="1" edge="1">
          <mxGeometry width="50" height="50" relative="1" as="geometry">
            <mxPoint x="469.9999999999998" y="220" as="sourcePoint" />
            <mxPoint x="760" y="220" as="targetPoint" />
          </mxGeometry>
        </mxCell>
        <mxCell id="IF2Q6fgf_21Sja4Km_W9-16" value="" style="rounded=0;whiteSpace=wrap;html=1;shadow=1;" parent="1" vertex="1">
          <mxGeometry x="10" y="10" width="10" height="60" as="geometry" />
        </mxCell>
        <mxCell id="IF2Q6fgf_21Sja4Km_W9-17" value="" style="rounded=0;whiteSpace=wrap;html=1;shadow=1;" parent="1" vertex="1">
          <mxGeometry x="20" y="10" width="10" height="60" as="geometry" />
        </mxCell>
        <mxCell id="IF2Q6fgf_21Sja4Km_W9-18" value="" style="rounded=0;whiteSpace=wrap;html=1;shadow=1;" parent="1" vertex="1">
          <mxGeometry x="30" y="10" width="10" height="60" as="geometry" />
        </mxCell>
        <mxCell id="IF2Q6fgf_21Sja4Km_W9-19" value="" style="rounded=0;whiteSpace=wrap;html=1;shadow=1;" parent="1" vertex="1">
          <mxGeometry x="40" y="10" width="10" height="60" as="geometry" />
        </mxCell>
        <mxCell id="IF2Q6fgf_21Sja4Km_W9-20" value="" style="rounded=0;whiteSpace=wrap;html=1;shadow=1;" parent="1" vertex="1">
          <mxGeometry x="50" y="10" width="10" height="60" as="geometry" />
        </mxCell>
        <mxCell id="IF2Q6fgf_21Sja4Km_W9-22" value="" style="endArrow=none;html=1;" parent="1" edge="1">
          <mxGeometry width="50" height="50" relative="1" as="geometry">
            <mxPoint x="10" y="179.41" as="sourcePoint" />
            <mxPoint x="250" y="179.41" as="targetPoint" />
          </mxGeometry>
        </mxCell>
        <mxCell id="IF2Q6fgf_21Sja4Km_W9-23" value="" style="endArrow=none;html=1;" parent="1" edge="1">
          <mxGeometry width="50" height="50" relative="1" as="geometry">
            <mxPoint x="250" y="220" as="sourcePoint" />
            <mxPoint x="250" y="90" as="targetPoint" />
          </mxGeometry>
        </mxCell>
        <mxCell id="IF2Q6fgf_21Sja4Km_W9-24" value="" style="endArrow=none;html=1;" parent="1" edge="1">
          <mxGeometry width="50" height="50" relative="1" as="geometry">
            <mxPoint x="249.99999999999977" y="350" as="sourcePoint" />
            <mxPoint x="250" y="290" as="targetPoint" />
          </mxGeometry>
        </mxCell>
        <mxCell id="IF2Q6fgf_21Sja4Km_W9-25" value="" style="rounded=0;whiteSpace=wrap;html=1;shadow=1;" parent="1" vertex="1">
          <mxGeometry x="400" y="215" width="70" height="10" as="geometry" />
        </mxCell>
        <mxCell id="IF2Q6fgf_21Sja4Km_W9-26" value="" style="rounded=0;whiteSpace=wrap;html=1;shadow=1;" parent="1" vertex="1">
          <mxGeometry x="244" y="220" width="10" height="70" as="geometry" />
        </mxCell>
        <mxCell id="IF2Q6fgf_21Sja4Km_W9-27" value="" style="rounded=0;whiteSpace=wrap;html=1;shadow=1;" parent="1" vertex="1">
          <mxGeometry x="755" y="10" width="10" height="70" as="geometry" />
        </mxCell>
        <mxCell id="IF2Q6fgf_21Sja4Km_W9-28" value="" style="rounded=0;whiteSpace=wrap;html=1;shadow=1;" parent="1" vertex="1">
          <mxGeometry x="395" y="70" width="10" height="70" as="geometry" />
        </mxCell>
        <mxCell id="IF2Q6fgf_21Sja4Km_W9-29" value="" style="endArrow=none;html=1;" parent="1" edge="1">
          <mxGeometry width="50" height="50" relative="1" as="geometry">
            <mxPoint x="399.9999999999998" y="10" as="sourcePoint" />
            <mxPoint x="400" y="70" as="targetPoint" />
          </mxGeometry>
        </mxCell>
        <mxCell id="IF2Q6fgf_21Sja4Km_W9-30" value="" style="rounded=0;whiteSpace=wrap;html=1;shadow=1;rotation=0;" parent="1" vertex="1">
          <mxGeometry x="340" y="340" width="60" height="10" as="geometry" />
        </mxCell>
        <mxCell id="IF2Q6fgf_21Sja4Km_W9-31" value="" style="rounded=0;whiteSpace=wrap;html=1;shadow=1;rotation=0;" parent="1" vertex="1">
          <mxGeometry x="340" y="330" width="60" height="10" as="geometry" />
        </mxCell>
        <mxCell id="IF2Q6fgf_21Sja4Km_W9-32" value="" style="rounded=0;whiteSpace=wrap;html=1;shadow=1;rotation=0;" parent="1" vertex="1">
          <mxGeometry x="340" y="320" width="60" height="10" as="geometry" />
        </mxCell>
        <mxCell id="IF2Q6fgf_21Sja4Km_W9-33" value="" style="rounded=0;whiteSpace=wrap;html=1;shadow=1;rotation=0;" parent="1" vertex="1">
          <mxGeometry x="340" y="310" width="60" height="10" as="geometry" />
        </mxCell>
        <mxCell id="IF2Q6fgf_21Sja4Km_W9-34" value="" style="rounded=0;whiteSpace=wrap;html=1;shadow=1;rotation=0;" parent="1" vertex="1">
          <mxGeometry x="340" y="300" width="60" height="10" as="geometry" />
        </mxCell>
        <mxCell id="IF2Q6fgf_21Sja4Km_W9-35" value="&lt;span style=&quot;color: rgba(0 , 0 , 0 , 0) ; font-family: monospace ; font-size: 0px&quot;&gt;%3CmxGraphModel%3E%3Croot%3E%3CmxCell%20id%3D%220%22%2F%3E%3CmxCell%20id%3D%221%22%20parent%3D%220%22%2F%3E%3CmxCell%20id%3D%222%22%20value%3D%22%22%20style%3D%22strokeWidth%3D2%3Bhtml%3D1%3Bshape%3Dmxgraph.flowchart.start_2%3BwhiteSpace%3Dwrap%3BfillColor%3D%2304B84C%3BstrokeColor%3Dnone%3B%22%20vertex%3D%221%22%20parent%3D%221%22%3E%3CmxGeometry%20x%3D%22680%22%20y%3D%22357%22%20width%3D%2230%22%20height%3D%2230%22%20as%3D%22geometry%22%2F%3E%3C%2FmxCell%3E%3C%2Froot%3E%3C%2FmxGraphModel%3E&lt;/span&gt;&lt;span style=&quot;color: rgba(0 , 0 , 0 , 0) ; font-family: monospace ; font-size: 0px&quot;&gt;%3CmxGraphModel%3E%3Croot%3E%3CmxCell%20id%3D%220%22%2F%3E%3CmxCell%20id%3D%221%22%20parent%3D%220%22%2F%3E%3CmxCell%20id%3D%222%22%20value%3D%22%22%20style%3D%22strokeWidth%3D2%3Bhtml%3D1%3Bshape%3Dmxgraph.flowchart.start_2%3BwhiteSpace%3Dwrap%3BfillColor%3D%2304B84C%3BstrokeColor%3Dnone%3B%22%20vertex%3D%221%22%20parent%3D%221%22%3E%3CmxGeometry%20x%3D%22680%22%20y%3D%22357%22%20width%3D%2230%22%20height%3D%2230%22%20as%3D%22geometry%22%2F%3E%3C%2FmxCell%3E%3C%2Froot%3E%3C%2FmxGraphModel%3E&lt;/span&gt;" style="strokeWidth=2;html=1;shape=mxgraph.flowchart.start_2;whiteSpace=wrap;fillColor=#6EB1FF;strokeColor=none;" parent="1" vertex="1">
          <mxGeometry x="680" y="517" width="30" height="30" as="geometry" />
        </mxCell>
        <mxCell id="IF2Q6fgf_21Sja4Km_W9-36" value="" style="endArrow=none;html=1;" parent="1" edge="1">
          <mxGeometry width="50" height="50" relative="1" as="geometry">
            <mxPoint x="230" y="90" as="sourcePoint" />
            <mxPoint x="249.99999999999977" y="89.99999999999986" as="targetPoint" />
          </mxGeometry>
        </mxCell>
        <mxCell id="IF2Q6fgf_21Sja4Km_W9-37" value="" style="endArrow=none;html=1;" parent="1" edge="1">
          <mxGeometry width="50" height="50" relative="1" as="geometry">
            <mxPoint x="10" y="89.99999999999986" as="sourcePoint" />
            <mxPoint x="160" y="90" as="targetPoint" />
          </mxGeometry>
        </mxCell>
        <mxCell id="IF2Q6fgf_21Sja4Km_W9-38" value="" style="rounded=0;whiteSpace=wrap;html=1;shadow=1;" parent="1" vertex="1">
          <mxGeometry x="160" y="84" width="70" height="10" as="geometry" />
        </mxCell>
        <mxCell id="IF2Q6fgf_21Sja4Km_W9-39" value="" style="strokeWidth=2;html=1;shape=mxgraph.flowchart.start_2;whiteSpace=wrap;fillColor=#4D4630;strokeColor=none;" parent="1" vertex="1">
          <mxGeometry x="50" y="110" width="40" height="40" as="geometry" />
        </mxCell>
        <mxCell id="IF2Q6fgf_21Sja4Km_W9-41" value="Físico" style="text;html=1;strokeColor=none;fillColor=none;align=center;verticalAlign=middle;whiteSpace=wrap;rounded=0;shadow=1;fontFamily=Verdana;fontStyle=1;fontSize=14;" parent="1" vertex="1">
          <mxGeometry x="715" y="362" width="40" height="20" as="geometry" />
        </mxCell>
        <mxCell id="IF2Q6fgf_21Sja4Km_W9-42" value="Químico" style="text;html=1;strokeColor=none;fillColor=none;align=center;verticalAlign=middle;whiteSpace=wrap;rounded=0;shadow=1;fontFamily=Verdana;fontStyle=1;fontSize=14;" parent="1" vertex="1">
          <mxGeometry x="725" y="401" width="40" height="20" as="geometry" />
        </mxCell>
        <mxCell id="IF2Q6fgf_21Sja4Km_W9-43" value="Biológico" style="text;html=1;strokeColor=none;fillColor=none;align=center;verticalAlign=middle;whiteSpace=wrap;rounded=0;shadow=1;fontFamily=Verdana;fontStyle=1;fontSize=14;" parent="1" vertex="1">
          <mxGeometry x="730" y="442" width="40" height="20" as="geometry" />
        </mxCell>
        <mxCell id="IF2Q6fgf_21Sja4Km_W9-44" value="Ergonômico" style="text;html=1;strokeColor=none;fillColor=none;align=center;verticalAlign=middle;whiteSpace=wrap;rounded=0;shadow=1;fontFamily=Verdana;fontStyle=1;fontSize=14;" parent="1" vertex="1">
          <mxGeometry x="740" y="482" width="40" height="20" as="geometry" />
        </mxCell>
        <mxCell id="IF2Q6fgf_21Sja4Km_W9-45" value="Mecânico/Acidental" style="text;html=1;strokeColor=none;fillColor=none;align=center;verticalAlign=middle;whiteSpace=wrap;rounded=0;shadow=1;fontFamily=Verdana;fontStyle=1;fontSize=14;" parent="1" vertex="1">
          <mxGeometry x="770" y="522" width="40" height="20" as="geometry" />
        </mxCell>
        <mxCell id="IF2Q6fgf_21Sja4Km_W9-46" value="Banheiro" style="text;html=1;strokeColor=none;fillColor=none;align=center;verticalAlign=middle;whiteSpace=wrap;rounded=0;shadow=1;fontFamily=Verdana;fontStyle=1;fontSize=16;" parent="1" vertex="1">
          <mxGeometry x="35" y="160" width="40" height="20" as="geometry" />
        </mxCell>
        <mxCell id="IF2Q6fgf_21Sja4Km_W9-47" value="Sala de Computadores" style="text;html=1;strokeColor=none;fillColor=none;align=center;verticalAlign=middle;whiteSpace=wrap;rounded=0;shadow=1;fontFamily=Verdana;fontStyle=1;fontSize=16;" parent="1" vertex="1">
          <mxGeometry x="470" y="195" width="220" height="20" as="geometry" />
        </mxCell>
        <mxCell id="IF2Q6fgf_21Sja4Km_W9-48" value="Depósito de Eletrônicos" style="text;html=1;strokeColor=none;fillColor=none;align=center;verticalAlign=middle;whiteSpace=wrap;rounded=0;shadow=1;fontFamily=Verdana;fontStyle=1;fontSize=16;" parent="1" vertex="1">
          <mxGeometry x="12.5" y="325" width="217.5" height="20" as="geometry" />
        </mxCell>
        <mxCell id="IF2Q6fgf_21Sja4Km_W9-49" value="Registro de Documentos" style="text;html=1;strokeColor=none;fillColor=none;align=center;verticalAlign=middle;whiteSpace=wrap;rounded=0;shadow=1;fontFamily=Verdana;fontStyle=1;fontSize=16;" parent="1" vertex="1">
          <mxGeometry x="405" y="325" width="226" height="20" as="geometry" />
        </mxCell>
        <mxCell id="IF2Q6fgf_21Sja4Km_W9-50" value="Sala de Reunião" style="text;html=1;strokeColor=none;fillColor=none;align=center;verticalAlign=middle;whiteSpace=wrap;rounded=0;shadow=1;fontFamily=Verdana;fontStyle=1;fontSize=16;" parent="1" vertex="1">
          <mxGeometry x="765" y="325" width="155" height="20" as="geometry" />
        </mxCell>
        <mxCell id="IF2Q6fgf_21Sja4Km_W9-52" value="" style="shape=flexArrow;endArrow=classic;html=1;fontFamily=Verdana;fontSize=16;" parent="1" edge="1">
          <mxGeometry width="50" height="50" relative="1" as="geometry">
            <mxPoint x="70" y="39.41" as="sourcePoint" />
            <mxPoint x="100" y="39.41" as="targetPoint" />
          </mxGeometry>
        </mxCell>
        <mxCell id="IF2Q6fgf_21Sja4Km_W9-53" value="" style="shape=flexArrow;endArrow=classic;html=1;fontFamily=Verdana;fontSize=16;entryX=0.5;entryY=1;entryDx=0;entryDy=0;" parent="1" edge="1">
          <mxGeometry width="50" height="50" relative="1" as="geometry">
            <mxPoint x="370" y="260" as="sourcePoint" />
            <mxPoint x="369.9999999999998" y="293" as="targetPoint" />
          </mxGeometry>
        </mxCell>
        <mxCell id="IF2Q6fgf_21Sja4Km_W9-55" value="" style="rounded=0;whiteSpace=wrap;html=1;shadow=1;" parent="1" vertex="1">
          <mxGeometry x="290" y="10" width="80" height="10" as="geometry" />
        </mxCell>
        <mxCell id="IF2Q6fgf_21Sja4Km_W9-56" value="" style="rounded=0;whiteSpace=wrap;html=1;shadow=1;" parent="1" vertex="1">
          <mxGeometry x="365" y="10" width="10" height="10" as="geometry" />
        </mxCell>
        <mxCell id="IF2Q6fgf_21Sja4Km_W9-57" value="" style="rounded=0;whiteSpace=wrap;html=1;shadow=1;" parent="1" vertex="1">
          <mxGeometry x="280" y="10" width="10" height="10" as="geometry" />
        </mxCell>
        <mxCell id="IF2Q6fgf_21Sja4Km_W9-58" value="" style="endArrow=none;html=1;fontFamily=Verdana;fontSize=16;" parent="1" edge="1">
          <mxGeometry width="50" height="50" relative="1" as="geometry">
            <mxPoint x="329" y="20" as="sourcePoint" />
            <mxPoint x="329" y="10" as="targetPoint" />
          </mxGeometry>
        </mxCell>
        <mxCell id="IF2Q6fgf_21Sja4Km_W9-59" value="Elevador" style="text;html=1;strokeColor=none;fillColor=none;align=center;verticalAlign=middle;whiteSpace=wrap;rounded=0;shadow=1;fontFamily=Verdana;fontSize=13;fontStyle=2" parent="1" vertex="1">
          <mxGeometry x="310" y="20" width="40" height="20" as="geometry" />
        </mxCell>
        <mxCell id="IF2Q6fgf_21Sja4Km_W9-60" value="" style="strokeWidth=2;html=1;shape=mxgraph.flowchart.start_2;whiteSpace=wrap;fillColor=#DBDB00;strokeColor=none;" parent="1" vertex="1">
          <mxGeometry x="490" y="80" width="40" height="40" as="geometry" />
        </mxCell>
        <mxCell id="IF2Q6fgf_21Sja4Km_W9-61" value="" style="strokeWidth=2;html=1;shape=mxgraph.flowchart.start_2;whiteSpace=wrap;fillColor=#04B84C;strokeColor=none;" parent="1" vertex="1">
          <mxGeometry x="540" y="80" width="40" height="40" as="geometry" />
        </mxCell>
        <mxCell id="IF2Q6fgf_21Sja4Km_W9-62" value="" style="strokeWidth=2;html=1;shape=mxgraph.flowchart.start_2;whiteSpace=wrap;fillColor=#DBDB00;strokeColor=none;" parent="1" vertex="1">
          <mxGeometry x="485" y="250" width="50" height="50" as="geometry" />
        </mxCell>
        <mxCell id="IF2Q6fgf_21Sja4Km_W9-64" value="" style="strokeWidth=2;html=1;shape=mxgraph.flowchart.start_2;whiteSpace=wrap;fillColor=#04B84C;strokeColor=none;" parent="1" vertex="1">
          <mxGeometry x="30" y="232.5" width="50" height="45" as="geometry" />
        </mxCell>
        <mxCell id="IF2Q6fgf_21Sja4Km_W9-65" value="&lt;span style=&quot;color: rgba(0 , 0 , 0 , 0) ; font-family: monospace ; font-size: 0px&quot;&gt;%3CmxGraphModel%3E%3Croot%3E%3CmxCell%20id%3D%220%22%2F%3E%3CmxCell%20id%3D%221%22%20parent%3D%220%22%2F%3E%3CmxCell%20id%3D%222%22%20value%3D%22%22%20style%3D%22strokeWidth%3D2%3Bhtml%3D1%3Bshape%3Dmxgraph.flowchart.start_2%3BwhiteSpace%3Dwrap%3BfillColor%3D%2304B84C%3BstrokeColor%3Dnone%3B%22%20vertex%3D%221%22%20parent%3D%221%22%3E%3CmxGeometry%20x%3D%22680%22%20y%3D%22357%22%20width%3D%2230%22%20height%3D%2230%22%20as%3D%22geometry%22%2F%3E%3C%2FmxCell%3E%3C%2Froot%3E%3C%2FmxGraphModel%3E&lt;/span&gt;&lt;span style=&quot;color: rgba(0 , 0 , 0 , 0) ; font-family: monospace ; font-size: 0px&quot;&gt;%3CmxGraphModel%3E%3Croot%3E%3CmxCell%20id%3D%220%22%2F%3E%3CmxCell%20id%3D%221%22%20parent%3D%220%22%2F%3E%3CmxCell%20id%3D%222%22%20value%3D%22%22%20style%3D%22strokeWidth%3D2%3Bhtml%3D1%3Bshape%3Dmxgraph.flowchart.start_2%3BwhiteSpace%3Dwrap%3BfillColor%3D%2304B84C%3BstrokeColor%3Dnone%3B%22%20vertex%3D%221%22%20parent%3D%221%22%3E%3CmxGeometry%20x%3D%22680%22%20y%3D%22357%22%20width%3D%2230%22%20height%3D%2230%22%20as%3D%22geometry%22%2F%3E%3C%2FmxCell%3E%3C%2Froot%3E%3C%2FmxGraphModel%3E&lt;/span&gt;" style="strokeWidth=2;html=1;shape=mxgraph.flowchart.start_2;whiteSpace=wrap;fillColor=#6EB1FF;strokeColor=none;" parent="1" vertex="1">
          <mxGeometry x="90" y="232.5" width="50" height="47.5" as="geometry" />
        </mxCell>
        <mxCell id="IF2Q6fgf_21Sja4Km_W9-66" value="" style="strokeWidth=2;html=1;shape=mxgraph.flowchart.start_2;whiteSpace=wrap;fillColor=#DBDB00;strokeColor=none;" parent="1" vertex="1">
          <mxGeometry x="815" y="155" width="30" height="30" as="geometry" />
        </mxCell>
        <mxCell id="IF2Q6fgf_21Sja4Km_W9-67" value="&lt;span style=&quot;color: rgba(0 , 0 , 0 , 0) ; font-family: monospace ; font-size: 0px&quot;&gt;%3CmxGraphModel%3E%3Croot%3E%3CmxCell%20id%3D%220%22%2F%3E%3CmxCell%20id%3D%221%22%20parent%3D%220%22%2F%3E%3CmxCell%20id%3D%222%22%20value%3D%22%22%20style%3D%22strokeWidth%3D2%3Bhtml%3D1%3Bshape%3Dmxgraph.flowchart.start_2%3BwhiteSpace%3Dwrap%3BfillColor%3D%23DBDB00%3BstrokeColor%3Dnone%3B%22%20vertex%3D%221%22%20parent%3D%221%22%3E%3CmxGeometry%20x%3D%22680%22%20y%3D%22477%22%20width%3D%2230%22%20height%3D%2230%22%20as%3D%22geometry%22%2F%3E%3C%2FmxCell%3E%3C%2Froot%3E%3C%2FmxGraphModel%3E&lt;/span&gt;&lt;span style=&quot;color: rgba(0 , 0 , 0 , 0) ; font-family: monospace ; font-size: 0px&quot;&gt;%3CmxGraphModel%3E%3Croot%3E%3CmxCell%20id%3D%220%22%2F%3E%3CmxCell%20id%3D%221%22%20parent%3D%220%22%2F%3E%3CmxCell%20id%3D%222%22%20value%3D%22%22%20style%3D%22strokeWidth%3D2%3Bhtml%3D1%3Bshape%3Dmxgraph.flowchart.start_2%3BwhiteSpace%3Dwrap%3BfillColor%3D%23DBDB00%3BstrokeColor%3Dnone%3B%22%20vertex%3D%221%22%20parent%3D%221%22%3E%3CmxGeometry%20x%3D%22680%22%20y%3D%22477%22%20width%3D%2230%22%20height%3D%2230%22%20as%3D%22geometry%22%2F%3E%3C%2FmxCell%3E%3C%2Froot%3E%3C%2FmxGraphModel%3E&lt;/span&gt;&lt;span style=&quot;color: rgba(0 , 0 , 0 , 0) ; font-family: monospace ; font-size: 0px&quot;&gt;%3CmxGraphModel%3E%3Croot%3E%3CmxCell%20id%3D%220%22%2F%3E%3CmxCell%20id%3D%221%22%20parent%3D%220%22%2F%3E%3CmxCell%20id%3D%222%22%20value%3D%22%22%20style%3D%22strokeWidth%3D2%3Bhtml%3D1%3Bshape%3Dmxgraph.flowchart.start_2%3BwhiteSpace%3Dwrap%3BfillColor%3D%23DBDB00%3BstrokeColor%3Dnone%3B%22%20vertex%3D%221%22%20parent%3D%221%22%3E%3CmxGeometry%20x%3D%22680%22%20y%3D%22477%22%20width%3D%2230%22%20height%3D%2230%22%20as%3D%22geometry%22%2F%3E%3C%2FmxCell%3E%3C%2Froot%3E%3C%2FmxGraphModel%3E&lt;/span&gt;" style="strokeWidth=2;html=1;shape=mxgraph.flowchart.start_2;whiteSpace=wrap;fillColor=#04B84C;strokeColor=none;" parent="1" vertex="1">
          <mxGeometry x="860" y="155" width="30" height="30" as="geometry" />
        </mxCell>
        <mxCell id="IF2Q6fgf_21Sja4Km_W9-69" value="&lt;font style=&quot;font-size: 14px&quot;&gt;&lt;b&gt;Risco Físico:&lt;/b&gt; Ruídos, Vibrações, Frio.&lt;br&gt;&lt;b&gt;Risco Químico: &lt;/b&gt;Poeira.&lt;br&gt;&lt;b&gt;Risco Biológico:&lt;/b&gt;&amp;nbsp;Fungos, Bactérias, Lixo Sanitário.&lt;br&gt;&lt;b&gt;Risco Ergonômico:&lt;/b&gt; Levantamento e Transporte Manual de Peso, Trabalho que requer Postura Inadequada, Repetitividade.&lt;br&gt;&lt;b&gt;Risco Mecânico/Acidental:&lt;/b&gt; Arranjo Físico Inadequado, Eletricidade, Risco de Incêndio, Máquinas ou Equipamentos sem Proteção, Armazenamento Inadequado.&lt;/font&gt;" style="text;html=1;strokeColor=none;fillColor=none;align=left;verticalAlign=top;whiteSpace=wrap;rounded=0;shadow=1;fontFamily=Verdana;fontSize=13;" parent="1" vertex="1">
          <mxGeometry x="12.5" y="352" width="657.5" height="198" as="geometry" />
        </mxCell>
        <mxCell id="IF2Q6fgf_21Sja4Km_W9-70" value="" style="strokeWidth=2;html=1;shape=mxgraph.flowchart.start_2;whiteSpace=wrap;fillColor=#CC1818;strokeColor=none;" parent="1" vertex="1">
          <mxGeometry x="545" y="260" width="30" height="30" as="geometry" />
        </mxCell>
        <mxCell id="IF2Q6fgf_21Sja4Km_W9-71" value="&lt;span style=&quot;color: rgba(0 , 0 , 0 , 0) ; font-family: monospace ; font-size: 0px&quot;&gt;%3CmxGraphModel%3E%3Croot%3E%3CmxCell%20id%3D%220%22%2F%3E%3CmxCell%20id%3D%221%22%20parent%3D%220%22%2F%3E%3CmxCell%20id%3D%222%22%20value%3D%22%22%20style%3D%22strokeWidth%3D2%3Bhtml%3D1%3Bshape%3Dmxgraph.flowchart.start_2%3BwhiteSpace%3Dwrap%3BfillColor%3D%2304B84C%3BstrokeColor%3Dnone%3B%22%20vertex%3D%221%22%20parent%3D%221%22%3E%3CmxGeometry%20x%3D%22680%22%20y%3D%22357%22%20width%3D%2230%22%20height%3D%2230%22%20as%3D%22geometry%22%2F%3E%3C%2FmxCell%3E%3C%2Froot%3E%3C%2FmxGraphModel%3E&lt;/span&gt;&lt;span style=&quot;color: rgba(0 , 0 , 0 , 0) ; font-family: monospace ; font-size: 0px&quot;&gt;%3CmxGraphModel%3E%3Croot%3E%3CmxCell%20id%3D%220%22%2F%3E%3CmxCell%20id%3D%221%22%20parent%3D%220%22%2F%3E%3CmxCell%20id%3D%222%22%20value%3D%22%22%20style%3D%22strokeWidth%3D2%3Bhtml%3D1%3Bshape%3Dmxgraph.flowchart.start_2%3BwhiteSpace%3Dwrap%3BfillColor%3D%2304B84C%3BstrokeColor%3Dnone%3B%22%20vertex%3D%221%22%20parent%3D%221%22%3E%3CmxGeometry%20x%3D%22680%22%20y%3D%22357%22%20width%3D%2230%22%20height%3D%2230%22%20as%3D%22geometry%22%2F%3E%3C%2FmxCell%3E%3C%2Froot%3E%3C%2FmxGraphModel%3E&lt;/span&gt;" style="strokeWidth=2;html=1;shape=mxgraph.flowchart.start_2;whiteSpace=wrap;fillColor=#6EB1FF;strokeColor=none;" parent="1" vertex="1">
          <mxGeometry x="590" y="80" width="40" height="40" as="geometry" />
        </mxCell>
        <mxCell id="IF2Q6fgf_21Sja4Km_W9-72" value="Fungos e Bactérias" style="text;html=1;strokeColor=none;fillColor=none;align=center;verticalAlign=middle;whiteSpace=wrap;rounded=0;shadow=1;fontFamily=Verdana;fontSize=13;fontStyle=1" parent="1" vertex="1">
          <mxGeometry x="94" y="120" width="150" height="20" as="geometry" />
        </mxCell>
        <mxCell id="IF2Q6fgf_21Sja4Km_W9-73" value="Ruídos e Frio" style="text;html=1;strokeColor=none;fillColor=none;align=center;verticalAlign=middle;whiteSpace=wrap;rounded=0;shadow=1;fontFamily=Verdana;fontSize=13;fontStyle=1" parent="1" vertex="1">
          <mxGeometry x="435" y="130" width="100" height="20" as="geometry" />
        </mxCell>
        <mxCell id="IF2Q6fgf_21Sja4Km_W9-74" value="Stress, LER" style="text;html=1;strokeColor=none;fillColor=none;align=center;verticalAlign=middle;whiteSpace=wrap;rounded=0;shadow=1;fontFamily=Verdana;fontSize=13;fontStyle=1" parent="1" vertex="1">
          <mxGeometry x="465" y="40" width="190" height="20" as="geometry" />
        </mxCell>
        <mxCell id="IF2Q6fgf_21Sja4Km_W9-75" value="Eletricidade, Risco de Incêndio" style="text;html=1;strokeColor=none;fillColor=none;align=center;verticalAlign=middle;whiteSpace=wrap;rounded=0;shadow=1;fontFamily=Verdana;fontSize=13;fontStyle=1" parent="1" vertex="1">
          <mxGeometry x="570" y="130" width="135" height="20" as="geometry" />
        </mxCell>
        <mxCell id="IF2Q6fgf_21Sja4Km_W9-76" value="Calor" style="text;html=1;strokeColor=none;fillColor=none;align=center;verticalAlign=middle;whiteSpace=wrap;rounded=0;shadow=1;fontFamily=Verdana;fontSize=13;fontStyle=1" parent="1" vertex="1">
          <mxGeometry x="35" y="210" width="40" height="20" as="geometry" />
        </mxCell>
        <mxCell id="IF2Q6fgf_21Sja4Km_W9-77" value="Máquinas sem Proteção" style="text;html=1;strokeColor=none;fillColor=none;align=center;verticalAlign=middle;whiteSpace=wrap;rounded=0;shadow=1;fontFamily=Verdana;fontSize=13;fontStyle=1" parent="1" vertex="1">
          <mxGeometry x="30" y="290" width="180" height="20" as="geometry" />
        </mxCell>
        <mxCell id="IF2Q6fgf_21Sja4Km_W9-78" value="Postura Inadequada" style="text;html=1;strokeColor=none;fillColor=none;align=center;verticalAlign=middle;whiteSpace=wrap;rounded=0;shadow=1;fontFamily=Verdana;fontSize=13;fontStyle=1" parent="1" vertex="1">
          <mxGeometry x="438" y="232.5" width="160" height="20" as="geometry" />
        </mxCell>
        <mxCell id="IF2Q6fgf_21Sja4Km_W9-79" value="" style="strokeWidth=2;html=1;shape=mxgraph.flowchart.start_2;whiteSpace=wrap;fillColor=#DBDB00;strokeColor=none;" parent="1" vertex="1">
          <mxGeometry x="150" y="230" width="50" height="50" as="geometry" />
        </mxCell>
        <mxCell id="IF2Q6fgf_21Sja4Km_W9-80" value="Levantamento e Transporte de Peso" style="text;html=1;strokeColor=none;fillColor=none;align=center;verticalAlign=middle;whiteSpace=wrap;rounded=0;shadow=1;fontFamily=Verdana;fontSize=13;fontStyle=1" parent="1" vertex="1">
          <mxGeometry x="102.5" y="195" width="145" height="20" as="geometry" />
        </mxCell>
        <mxCell id="IF2Q6fgf_21Sja4Km_W9-81" value="Poeira" style="text;html=1;strokeColor=none;fillColor=none;align=center;verticalAlign=middle;whiteSpace=wrap;rounded=0;shadow=1;fontFamily=Verdana;fontSize=13;fontStyle=1" parent="1" vertex="1">
          <mxGeometry x="580" y="265" width="40" height="20" as="geometry" />
        </mxCell>
        <mxCell id="IF2Q6fgf_21Sja4Km_W9-82" value="Frio" style="text;html=1;strokeColor=none;fillColor=none;align=center;verticalAlign=middle;whiteSpace=wrap;rounded=0;shadow=1;fontFamily=Verdana;fontSize=13;fontStyle=1" parent="1" vertex="1">
          <mxGeometry x="855" y="185" width="40" height="20" as="geometry" />
        </mxCell>
        <mxCell id="IF2Q6fgf_21Sja4Km_W9-83" value="Situações de estresse psíquico e Controle de Produtividade" style="text;html=1;strokeColor=none;fillColor=none;align=center;verticalAlign=middle;whiteSpace=wrap;rounded=0;shadow=1;fontFamily=Verdana;fontSize=13;fontStyle=1" parent="1" vertex="1">
          <mxGeometry x="732.5" y="120" width="220" height="20" as="geometry" />
        </mxCell>
      </root>
    </mxGraphModel>
  </diagram>
</mxfile>
